<svg width="20" height="20" viewBox="0 0 20 20" fill="none" xmlns="http://www.w3.org/2000/svg">
<path d="M10.8151 10.197L3.28308 11.453C3.19649 11.4674 3.11522 11.5044 3.04746 11.5603C2.97971 11.6161 2.92784 11.6888 2.89708 11.771L0.30008 18.728C0.0520799 19.368 0.72108 19.978 1.33508 19.671L19.3351 10.671C19.4598 10.6087 19.5646 10.513 19.6379 10.3945C19.7112 10.2759 19.75 10.1393 19.75 9.99999C19.75 9.86064 19.7112 9.72404 19.6379 9.60552C19.5646 9.487 19.4598 9.39125 19.3351 9.32899L1.33508 0.328992C0.72108 0.0219922 0.0520799 0.632992 0.30008 1.27199L2.89808 8.22899C2.92869 8.31141 2.9805 8.38429 3.04827 8.4403C3.11604 8.4963 3.19737 8.53345 3.28408 8.54799L10.8161 9.80299C10.8624 9.81111 10.9044 9.83532 10.9347 9.87135C10.965 9.90738 10.9816 9.95293 10.9816 9.99999C10.9816 10.0471 10.965 10.0926 10.9347 10.1286C10.9044 10.1647 10.8624 10.1889 10.8161 10.197H10.8151Z" fill="white"/>
</svg>
